<svg width="50" height="50" viewBox="0 0 50 50" fill="none" xmlns="http://www.w3.org/2000/svg">
<rect width="50" height="50" fill="white"/>
<path d="M14.1086 7.35736H7.65766V14.1308" stroke="#005B97" stroke-width="2.45134"/>
<path d="M36.0416 7.35736H42.4925V14.1308" stroke="#005B97" stroke-width="2.45134"/>
<path d="M36.0416 42.5147H42.4925V35.7413" stroke="#005B97" stroke-width="2.45134"/>
<path d="M14.1086 42.5147H7.65766V35.7413" stroke="#005B97" stroke-width="2.45134"/>
<g clip-path="url(#clip0_265_102)">
<path d="M22.4947 34.7091H27.6554C31.2795 34.7091 33.0915 34.7091 34.3931 33.8552C34.9566 33.4855 35.4404 33.0105 35.817 32.4573C36.6867 31.1793 36.6867 29.4002 36.6867 25.8421C36.6867 22.284 36.6867 20.5049 35.817 19.2269C35.4404 18.6737 34.9566 18.1986 34.3931 17.829C33.5567 17.2803 32.5096 17.0841 30.9064 17.014C30.1414 17.014 29.4827 16.4449 29.3327 15.7083C29.1076 14.6035 28.1196 13.8082 26.972 13.8082H23.1781C22.0306 13.8082 21.0425 14.6035 20.8175 15.7083C20.6675 16.4449 20.0088 17.014 19.2437 17.014C17.6406 17.0841 16.5934 17.2803 15.757 17.829C15.1935 18.1986 14.7097 18.6737 14.3332 19.2269C13.4635 20.5049 13.4635 22.284 13.4635 25.8421C13.4635 29.4002 13.4635 31.1793 14.3332 32.4573C14.7097 33.0105 15.1935 33.4855 15.757 33.8552C17.0587 34.7091 18.8707 34.7091 22.4947 34.7091Z" fill="#787878"/>
<path fill-rule="evenodd" clip-rule="evenodd" d="M25.0751 22.992C23.4719 22.992 22.1722 24.268 22.1722 25.8421C22.1722 27.4162 23.4719 28.6922 25.0751 28.6922C26.6783 28.6922 27.978 27.4162 27.978 25.8421C27.978 24.268 26.6783 22.992 25.0751 22.992ZM20.2369 25.8421C20.2369 23.2186 22.403 21.0919 25.0751 21.0919C27.7471 21.0919 29.9133 23.2186 29.9133 25.8421C29.9133 28.4655 27.7471 30.5923 25.0751 30.5923C22.403 30.5923 20.2369 28.4655 20.2369 25.8421Z" fill="white"/>
<path fill-rule="evenodd" clip-rule="evenodd" d="M30.5583 22.0419C30.5583 21.5172 30.9916 21.0919 31.526 21.0919H32.8162C33.3506 21.0919 33.7838 21.5172 33.7838 22.0419C33.7838 22.5666 33.3506 22.992 32.8162 22.992H31.526C30.9916 22.992 30.5583 22.5666 30.5583 22.0419Z" fill="white"/>
<rect x="7.33511" y="24.9683" width="35.4799" height="1.29018" fill="#F04014"/>
<rect x="7.33511" y="24.9683" width="35.4799" height="1.29018" stroke="white" stroke-width="0.64509"/>
</g>
<defs>
<clipPath id="clip0_265_102">
<rect width="34.8348" height="21.933" fill="white" transform="translate(7.65765 13.8082)"/>
</clipPath>
</defs>
</svg>
